<svg xmlns:xlink="http://www.w3.org/1999/xlink" xmlns="http://www.w3.org/2000/svg" fill="none" viewBox="0 0 92 106" width="92"  height="106" ><path fill="#fff" d="M0 83.334 46 106l46-22.666V0H0z"/><path fill="#fff" d="M0 83.334 46 106l46-22.666V0H0z"/><path fill="#000" d="m14.4 13.25 1.4-4.9h.98l-1.47 4.9Zm-2.96 0-1.45-4.9h.98l1.39 4.9Zm.13 0 1.34-4.9h.86l-1.33 4.9Zm2.74 0-1.32-4.9h.87l1.36 4.9Zm3.76 0v-4.9h.95v4.9Zm2.72 0v-4.9h1l2.39 3.29V8.35h.96v4.9h-.96L21.75 9.9v3.35Zm7.15 0V9.23h-1.47v-.88h3.89v.87l-1.47.01v4.02Zm3.75 0v-4.9h3.1v.87l-2.14.01v1.11h1.84v.85h-1.84v1.19h2.17v.87Zm4.82 0v-4.9h1.82q.52 0 .92.2.4.21.62.56t.22.82q0 .46-.23.82t-.64.56-.92.2h-.83v1.74Zm2.7 0-1.14-1.97.74-.52 1.48 2.49Zm-1.74-2.61h.87q.21 0 .39-.09.17-.09.27-.25t.1-.37q0-.31-.23-.51-.22-.19-.58-.19h-.82Zm6.45 2.61v-.71q0-.2.12-.44.13-.25.35-.49.23-.25.53-.46l.74-.53q.15-.11.29-.24t.22-.29q.09-.16.09-.3 0-.19-.09-.33-.08-.15-.25-.23-.17-.09-.41-.09-.21 0-.38.09-.16.08-.27.22-.1.14-.15.3l-.98-.17q.07-.35.3-.65t.6-.49q.38-.18.85-.18.55 0 .94.2.39.19.61.53.21.34.21.79t-.25.81q-.25.35-.68.66l-.66.48q-.21.14-.35.31-.15.17-.23.37h2.23v.84Zm6.66.08q-.59 0-1.05-.32-.45-.33-.71-.9t-.26-1.31.26-1.31.71-.9q.45-.32 1.04-.32.6 0 1.06.32.46.33.71.9.26.57.26 1.31t-.26 1.31q-.25.57-.71.9-.45.32-1.05.32m0-.86q.32 0 .56-.22.25-.21.39-.59.14-.37.14-.86t-.14-.87-.39-.59q-.24-.21-.57-.21-.31 0-.56.21-.24.21-.38.59-.13.38-.13.87t.13.86q.14.38.39.59.25.22.56.22m3.33.78v-.71q0-.2.12-.44.13-.25.35-.49.23-.25.53-.46l.74-.53q.15-.11.29-.24t.22-.29q.09-.16.09-.3 0-.19-.09-.33-.08-.15-.25-.23-.17-.09-.42-.09-.21 0-.37.09-.16.08-.27.22-.1.14-.15.3l-.98-.17q.07-.35.3-.65t.6-.49q.38-.18.85-.18.55 0 .94.2.39.19.61.53.21.34.21.79t-.25.81q-.25.35-.68.66l-.67.48q-.2.14-.35.31-.14.17-.22.37h2.23v.84Zm6.48.08q-.49 0-.84-.17-.35-.18-.57-.5-.22-.31-.32-.73t-.1-.9q0-.56.12-1.06t.36-.88q.24-.39.62-.61.38-.21.91-.21.38 0 .75.11t.66.32l-.47.7q-.22-.15-.47-.22t-.46-.07q-.54 0-.84.47-.31.48-.3 1.51l-.19-.14q.16-.38.5-.61t.8-.23q.47 0 .83.21.36.22.56.6.21.37.21.83t-.22.82q-.21.36-.61.56-.39.2-.93.2m0-.81q.24 0 .42-.1.18-.11.28-.29.11-.18.11-.42t-.11-.42q-.1-.19-.28-.3t-.42-.11q-.23 0-.41.11-.19.11-.29.3-.11.18-.11.42t.11.42q.1.18.29.29.18.1.41.1M30.06 47.5v-7h4.64v1.48h-3.03v1.35h2.45v1.47h-2.45v2.7Zm8.3 0-.04-1.08v-1.41q0-.4-.07-.7t-.25-.47-.54-.17q-.28 0-.49.13t-.36.36l-1.36-.45q.17-.37.47-.67.29-.3.72-.48t1-.18q.78 0 1.32.29t.81.81.27 1.23l-.02 2.79Zm-1.36.12q-.89 0-1.38-.4t-.49-1.13q0-.79.51-1.18t1.43-.39h1.37v1h-.78q-.5 0-.72.14t-.22.39q0 .18.17.29.16.1.45.1t.51-.12q.22-.13.35-.34.12-.21.12-.46h.39q0 1-.42 1.55t-1.29.55m5.67 0q-.49 0-.91-.14-.43-.15-.74-.41-.31-.27-.46-.65l1.28-.54q.13.26.36.39.23.12.47.12.25 0 .39-.08.14-.09.14-.24 0-.16-.14-.25-.15-.09-.42-.16l-.43-.11q-.7-.18-1.07-.59-.38-.42-.38-.97 0-.77.53-1.19t1.47-.42q.53 0 .94.14.4.14.68.4.27.25.39.59l-1.24.51q-.07-.2-.28-.3-.22-.11-.48-.11-.22 0-.34.1-.12.09-.12.25 0 .12.15.21.14.08.42.15l.53.13q.47.12.79.37.32.24.48.57.16.32.16.69 0 .47-.27.82-.28.34-.77.53t-1.13.19m5.06 0q-.89 0-1.32-.42-.44-.43-.44-1.22v-5.04h1.56v4.65q0 .3.11.44t.34.14q.09 0 .21-.04.12-.05.22-.12l.54 1.14q-.24.2-.57.34-.34.13-.65.13m-2.54-3.81V42.5h3.48v1.31ZM52 47.62q-.78 0-1.38-.33-.6-.34-.94-.93T49.34 45q0-.78.34-1.37.35-.59.95-.92t1.39-.33q.71 0 1.28.34t.91 1.01q.33.67.33 1.67h-3.76l.17-.19q0 .34.14.6t.39.4q.25.13.56.13.37 0 .63-.16.25-.17.35-.42l1.38.47q-.2.47-.57.78-.36.31-.83.46t-1 .15m-1.01-3.06-.16-.2h2.24l-.14.2q0-.37-.15-.59t-.37-.31q-.22-.1-.44-.1t-.44.1q-.23.09-.38.31-.16.22-.16.59m6.09 3.06q-.49 0-.92-.14-.42-.15-.73-.41-.31-.27-.46-.65l1.28-.54q.13.26.36.39.23.12.47.12.25 0 .39-.08.14-.09.14-.24 0-.16-.15-.25-.14-.09-.41-.16l-.43-.11q-.7-.18-1.08-.59-.37-.42-.37-.97 0-.77.53-1.19t1.47-.42q.53 0 .93.14.41.14.68.4.28.25.4.59l-1.24.51q-.07-.2-.29-.3-.21-.11-.47-.11-.22 0-.34.1-.12.09-.12.25 0 .12.14.21.15.08.43.15l.53.13q.47.12.79.37.32.24.48.57.16.32.16.69 0 .47-.28.82-.27.34-.76.53t-1.13.19m5.06 0q-.89 0-1.32-.42-.44-.43-.44-1.22v-5.04h1.56v4.65q0 .3.11.44t.34.14q.09 0 .21-.04.12-.05.22-.12l.54 1.14q-.24.2-.57.34-.34.13-.65.13m-2.54-3.81V42.5h3.48v1.31ZM10.17 57.5v-7h1.61v7Zm2.8 0v-5h1.47l.06.63q.24-.37.6-.56.35-.19.78-.19.62 0 1.03.26.4.25.59.77.23-.5.63-.76.4-.27.9-.27.9 0 1.35.55.46.55.45 1.71v2.86h-1.56v-2.56q0-.4-.08-.63-.09-.24-.25-.35t-.38-.12q-.43-.01-.65.25-.23.25-.23.77v2.64h-1.56v-2.56q0-.4-.08-.63-.09-.24-.25-.35t-.38-.12q-.43-.01-.65.25-.23.25-.23.77v2.64Zm8.86 2v-7h1.47l.09.92v6.08Zm2.98-1.88q-.62 0-1.04-.31-.42-.32-.63-.91t-.21-1.4q0-.82.21-1.4.21-.59.63-.9.42-.32 1.04-.32.7 0 1.21.32.51.31.78.9.27.58.27 1.4 0 .81-.27 1.4t-.78.91q-.51.31-1.21.31m-.4-1.44q.3 0 .53-.15t.37-.41q.14-.27.14-.62t-.13-.61q-.13-.27-.36-.42-.24-.15-.54-.15t-.53.15q-.24.15-.37.42t-.13.61q0 .35.13.62.13.26.36.41t.53.15m3.42 1.32v-7h1.56v7Zm4.98.12q-.78 0-1.38-.33-.6-.34-.94-.93T30.15 55q0-.78.34-1.37.35-.59.95-.92t1.39-.33q.71 0 1.28.34t.91 1.01q.33.67.33 1.67h-3.76l.17-.19q0 .34.14.6t.39.4q.25.13.56.13.37 0 .63-.16.25-.17.35-.42l1.38.47q-.2.47-.57.78-.36.31-.83.46t-1 .15m-1.01-3.06-.16-.2h2.24l-.14.2q0-.37-.15-.59t-.37-.31q-.22-.1-.44-.1t-.44.1q-.23.09-.38.31-.16.22-.16.59m4.21 2.94v-5h1.47l.06.63q.24-.37.59-.56.36-.19.79-.19.62 0 1.02.26.41.25.6.77.23-.5.63-.76.4-.27.9-.27.9 0 1.35.55.46.55.45 1.71v2.86h-1.56v-2.56q0-.4-.09-.63-.08-.24-.24-.35t-.38-.12q-.43-.01-.66.25-.22.25-.22.77v2.64h-1.56v-2.56q0-.4-.09-.63-.08-.24-.24-.35t-.38-.12q-.43-.01-.66.25-.22.25-.22.77v2.64Zm11.21.12q-.78 0-1.38-.33-.6-.34-.94-.93T44.56 55q0-.78.34-1.37.35-.59.95-.92t1.39-.33q.71 0 1.28.34t.91 1.01q.33.67.33 1.67H46l.17-.19q0 .34.14.6t.39.4q.25.13.56.13.37 0 .63-.16.25-.17.35-.42l1.38.47q-.2.47-.57.78-.36.31-.83.46t-1 .15m-1.01-3.06-.16-.2h2.24l-.14.2q0-.37-.15-.59t-.37-.31q-.22-.1-.44-.1t-.44.1q-.23.09-.39.31-.15.22-.15.59m4.21 2.94v-5h1.47l.09.92v4.08Zm3.22 0v-2.56h1.56v2.56Zm0-2.56q0-.4-.09-.63-.09-.24-.26-.35-.16-.11-.4-.12-.45-.01-.68.25-.23.25-.23.77h-.47q0-.79.24-1.34.24-.56.65-.85.42-.29.97-.29.6 0 1.01.25.41.24.61.74.21.5.21 1.28v.29Zm4.66 2.68q-.89 0-1.33-.42-.43-.43-.43-1.22v-5.04h1.56v4.65q0 .3.11.44t.34.14q.09 0 .21-.04.12-.05.22-.12l.54 1.14q-.24.2-.58.34-.33.13-.64.13m-2.54-3.81V52.5h3.48v1.31Zm7.38 3.69-.04-1.08v-1.41q0-.4-.07-.7t-.25-.47-.54-.17q-.28 0-.49.13t-.36.36l-1.36-.45q.17-.37.46-.67.3-.3.73-.48t1-.18q.78 0 1.32.29t.81.81.27 1.23l-.02 2.79Zm-1.36.12q-.89 0-1.38-.4t-.49-1.13q0-.79.51-1.18t1.43-.39h1.37v1h-.78q-.5 0-.72.14t-.22.39q0 .18.16.29.17.1.46.1t.51-.12q.22-.13.34-.34.13-.21.13-.46h.39q0 1-.42 1.55t-1.29.55m5.94 0q-.89 0-1.32-.42-.44-.43-.44-1.22v-5.04h1.56v4.65q0 .3.11.44t.34.14q.09 0 .21-.04.12-.05.22-.12l.54 1.14q-.24.2-.57.34-.34.13-.65.13m-2.54-3.81V52.5h3.48v1.31Zm4.62 3.69v-5h1.56v5Zm.78-5.64q-.35 0-.62-.26-.26-.27-.26-.62 0-.37.26-.62.27-.26.62-.26.36 0 .62.26.26.25.26.62 0 .35-.26.62-.26.26-.62.26m4.31 5.76q-.79 0-1.39-.33-.6-.34-.94-.93-.35-.59-.35-1.36t.34-1.36q.33-.59.94-.92.6-.34 1.37-.34.79 0 1.4.34.6.33.94.92.33.59.33 1.36t-.33 1.36q-.34.59-.94.93-.6.33-1.37.33m0-1.44q.3 0 .54-.15.23-.15.37-.41.13-.27.13-.62t-.13-.61q-.14-.27-.38-.42t-.55-.15-.55.15-.37.42q-.14.26-.14.61t.14.62q.13.26.38.41.24.15.56.15m3.4 1.32v-5h1.47l.09.92v4.08Zm3.22 0v-2.56h1.56v2.56Zm0-2.56q0-.4-.09-.63-.09-.24-.25-.35-.17-.11-.41-.12-.45-.01-.68.25-.23.25-.23.77h-.47q0-.79.24-1.34.24-.56.66-.85.41-.29.96-.29.6 0 1.01.25.41.24.62.74.2.5.2 1.28v.29Z" style="white-space:pre"/><path fill="#FF492C" d="M71 0h21v21H71z"/><path fill="#fff" fill-rule="evenodd" d="M86.05 8.041h-1.794c.049-.28.222-.438.575-.616l.33-.168c.592-.303.906-.644.906-1.2a.97.97 0 0 0-.407-.828c-.265-.2-.59-.298-.965-.298q-.446-.001-.818.233a1.4 1.4 0 0 0-.542.59l.52.519q.3-.607.878-.606c.326 0 .526.168.526.4 0 .195-.097.357-.472.546l-.21.103q-.692.348-.966.8c-.184.298-.276.682-.276 1.142v.124h2.716v-.74Zm-.244 1.6h-2.967l-1.483 2.57h2.967l1.483 2.57 1.483-2.57z" clip-rule="evenodd"/><path fill="#fff" fill-rule="evenodd" d="M81.608 13.928a3.433 3.433 0 0 1-3.43-3.428 3.433 3.433 0 0 1 3.43-3.427l1.175-2.456a6 6 0 0 0-7.177 5.883 6 6 0 0 0 6.002 5.998 5.98 5.98 0 0 0 3.535-1.15l-1.3-2.25a3.42 3.42 0 0 1-2.235.83" clip-rule="evenodd"/><path fill="#288DFF" d="M0 83.223v-6.204l46 23.043 46-23.043v6.272L46 106z"/><path fill="#FFF" d="M0 77.566v-6.5l46 23.042 46-23.042v6.5l-46 22.48z"/><path fill="#FFF" d="M0 71.631v-6.5l46 23.043L92 65.13v6.5L46 94.11 0 71.63Z"/><path stroke="#000" d="M91.5.5v82.522L46 105.441.5 83.022V.5zm.03 20.033H.625M71.262.909v19.624"/></svg>