<svg xmlns:xlink="http://www.w3.org/1999/xlink" xmlns="http://www.w3.org/2000/svg" fill="none" viewBox="0 0 92 106" width="92"  height="106" ><path fill="#fff" d="M0 83.334 46 106l46-22.666V0H0z"/><path fill="#fff" d="M0 83.334 46 106l46-22.666V0H0z"/><path fill="#000" d="m14.4 13.25 1.4-4.9h.98l-1.47 4.9Zm-2.96 0-1.45-4.9h.98l1.39 4.9Zm.13 0 1.34-4.9h.86l-1.33 4.9Zm2.74 0-1.32-4.9h.87l1.36 4.9Zm3.76 0v-4.9h.95v4.9Zm2.72 0v-4.9h1l2.39 3.29V8.35h.96v4.9h-.96L21.75 9.9v3.35Zm7.15 0V9.23h-1.47v-.88h3.89v.87l-1.47.01v4.02Zm3.75 0v-4.9h3.1v.87l-2.14.01v1.11h1.84v.85h-1.84v1.19h2.17v.87Zm4.82 0v-4.9h1.82q.52 0 .92.2.4.21.62.56t.22.82q0 .46-.23.82t-.64.56-.92.2h-.83v1.74Zm2.7 0-1.14-1.97.74-.52 1.48 2.49Zm-1.74-2.61h.87q.21 0 .39-.09.17-.09.27-.25t.1-.37q0-.31-.23-.51-.22-.19-.58-.19h-.82Zm6.45 2.61v-.71q0-.2.12-.44.13-.25.35-.49.23-.25.53-.46l.74-.53q.15-.11.29-.24t.22-.29q.09-.16.09-.3 0-.19-.09-.33-.08-.15-.25-.23-.17-.09-.41-.09-.21 0-.38.09-.16.08-.27.22-.1.14-.15.3l-.98-.17q.07-.35.3-.65t.6-.49q.38-.18.85-.18.55 0 .94.2.39.19.61.53.21.34.21.79t-.25.81q-.25.35-.68.66l-.66.48q-.21.14-.35.31-.15.17-.23.37h2.23v.84Zm6.66.08q-.59 0-1.05-.32-.45-.33-.71-.9t-.26-1.31.26-1.31.71-.9q.45-.32 1.04-.32.6 0 1.06.32.46.33.71.9.26.57.26 1.31t-.26 1.31q-.25.57-.71.9-.45.32-1.05.32m0-.86q.32 0 .56-.22.25-.21.39-.59.14-.37.14-.86t-.14-.87-.39-.59q-.24-.21-.57-.21-.31 0-.56.21-.24.21-.38.59-.13.38-.13.87t.13.86q.14.38.39.59.25.22.56.22m3.33.78v-.71q0-.2.12-.44.13-.25.35-.49.23-.25.53-.46l.74-.53q.15-.11.29-.24t.22-.29q.09-.16.09-.3 0-.19-.09-.33-.08-.15-.25-.23-.17-.09-.42-.09-.21 0-.37.09-.16.08-.27.22-.1.14-.15.3l-.98-.17q.07-.35.3-.65t.6-.49q.38-.18.85-.18.55 0 .94.2.39.19.61.53.21.34.21.79t-.25.81q-.25.35-.68.66l-.67.48q-.2.14-.35.31-.14.17-.22.37h2.23v.84Zm6.48.08q-.49 0-.84-.17-.35-.18-.57-.5-.22-.31-.32-.73t-.1-.9q0-.56.12-1.06t.36-.88q.24-.39.62-.61.38-.21.91-.21.38 0 .75.11t.66.32l-.47.7q-.22-.15-.47-.22t-.46-.07q-.54 0-.84.47-.31.48-.3 1.51l-.19-.14q.16-.38.5-.61t.8-.23q.47 0 .83.21.36.22.56.6.21.37.21.83t-.22.82q-.21.36-.61.56-.39.2-.93.2m0-.81q.24 0 .42-.1.18-.11.28-.29.11-.18.11-.42t-.11-.42q-.1-.19-.28-.3t-.42-.11q-.23 0-.41.11-.19.11-.29.3-.11.18-.11.42t.11.42q.1.18.29.29.18.1.41.1M31.06 46V34.8h3.92q1.15 0 2.03.35t1.38 1.07q.49.72.49 1.83 0 .59-.31 1.11t-.85.94q.76.4 1.17 1.04.41.65.41 1.6 0 1.05-.48 1.78t-1.33 1.1q-.85.38-1.98.38Zm2.51-2.27h1.65q.66 0 1.04-.35.38-.34.38-.88 0-.58-.4-.91t-1.1-.33h-1.57Zm0-4.53h1.33q.61 0 .98-.31.36-.31.36-.87 0-.58-.39-.89t-1.05-.31h-1.23Zm10.87 6.99q-1.25 0-2.21-.53-.96-.54-1.51-1.48-.54-.95-.54-2.18 0-1.25.55-2.19.55-.95 1.51-1.47.96-.53 2.23-.53 1.13 0 2.05.54.91.55 1.44 1.62.54 1.07.54 2.67h-6.02l.28-.3q0 .54.22.96.22.41.62.63.4.21.9.21.59 0 1-.26t.57-.66l2.21.75q-.32.75-.91 1.25-.58.49-1.33.73-.76.24-1.6.24m-1.62-4.89-.26-.32h3.59l-.23.32q0-.6-.24-.95t-.59-.5-.7-.15-.71.15-.61.5-.25.95m9.74 4.89q-.78 0-1.46-.23t-1.18-.66q-.49-.42-.73-1.03l2.05-.86q.2.41.57.61t.75.2q.4 0 .63-.13.22-.14.22-.38 0-.25-.23-.4-.23-.14-.66-.25l-.69-.18q-1.12-.29-1.72-.95-.6-.67-.6-1.55 0-1.23.85-1.9.84-.67 2.35-.67.85 0 1.49.22.65.23 1.09.63.44.41.63.96l-1.98.81q-.11-.32-.46-.49-.34-.16-.76-.16-.35 0-.54.15t-.19.41q0 .19.23.32.23.14.68.25l.85.21q.75.19 1.26.58.51.4.77.92t.26 1.11q0 .75-.44 1.3t-1.23.86q-.78.3-1.81.3m8.1 0q-1.42 0-2.12-.68t-.7-1.94V35.5h2.5v7.44q0 .48.18.71.17.22.54.22.14 0 .34-.07.19-.07.35-.18l.86 1.82q-.38.32-.92.54-.53.21-1.03.21M56.6 40.1V38h5.56v2.1ZM17.8 62V50.8h7.29v2.37h-4.72v2.05h3.95v2.28h-3.95v2.13h4.8V62Zm12.12.19q-.78 0-1.46-.23t-1.18-.66q-.49-.42-.73-1.03l2.05-.86q.2.41.57.61t.75.2q.4 0 .63-.13.22-.14.22-.38 0-.25-.23-.4-.23-.14-.66-.25l-.69-.18q-1.12-.29-1.72-.95-.6-.67-.6-1.55 0-1.23.85-1.9.84-.67 2.35-.67.85 0 1.49.22.65.23 1.09.63.44.41.63.96l-1.98.81q-.11-.32-.46-.49-.34-.16-.76-.16-.35 0-.54.15t-.19.41q0 .19.23.32.23.14.68.25l.85.21q.75.19 1.26.58.51.4.77.92t.26 1.11q0 .75-.44 1.3t-1.23.86q-.78.3-1.81.3m8.1 0q-1.42 0-2.12-.68t-.7-1.94V51.5h2.5v7.44q0 .48.18.71.17.22.54.22.14 0 .34-.07.19-.07.35-.18l.86 1.82q-.38.32-.92.54-.53.21-1.03.21m-4.06-6.09V54h5.56v2.1Zm8.57 6.14q-.61 0-1.04-.43t-.43-1.04q0-.59.43-1.03.43-.43 1.04-.43.59 0 1.03.43.43.44.43 1.03 0 .61-.43 1.04-.44.43-1.03.43m6.96-.24V50.8h4.4q1.22 0 2.16.47.95.47 1.48 1.31.54.84.54 1.93t-.55 1.94q-.54.85-1.49 1.32t-2.19.47h-1.77V62Zm6.08 0-2.53-4.45 1.94-1.42L58.52 62Zm-3.5-6.13h1.74q.45 0 .8-.17.35-.18.55-.49t.2-.7q0-.59-.44-.97-.44-.39-1.16-.39h-1.69Zm13.17 6.32q-1.73 0-3.06-.74-1.33-.75-2.08-2.05t-.75-2.98q0-1.7.75-3 .75-1.31 2.07-2.05 1.32-.75 3.03-.75 1.72 0 3.04.75 1.32.74 2.07 2.05.75 1.3.75 3 0 1.68-.74 2.98-.75 1.3-2.06 2.05-1.31.74-3.02.74m0-2.37q.94 0 1.66-.43t1.12-1.21q.4-.77.4-1.76 0-1.01-.42-1.79-.41-.77-1.13-1.21t-1.67-.44q-.94 0-1.66.44t-1.14 1.21q-.41.78-.41 1.79 0 .99.41 1.76.42.78 1.16 1.21.73.43 1.68.43M72.63 62V50.8h2.57V62Z" style="white-space:pre"/><path fill="#FF492C" d="M71 0h21v21H71z"/><path fill="#fff" fill-rule="evenodd" d="M86.05 8.041h-1.794c.049-.28.222-.438.575-.616l.33-.168c.592-.303.906-.644.906-1.2a.97.97 0 0 0-.407-.828c-.265-.2-.59-.298-.965-.298q-.446-.001-.818.233a1.4 1.4 0 0 0-.542.59l.52.519q.3-.607.878-.606c.326 0 .526.168.526.4 0 .195-.097.357-.472.546l-.21.103q-.692.348-.966.8c-.184.298-.276.682-.276 1.142v.124h2.716v-.74Zm-.244 1.6h-2.967l-1.483 2.57h2.967l1.483 2.57 1.483-2.57z" clip-rule="evenodd"/><path fill="#fff" fill-rule="evenodd" d="M81.608 13.928a3.433 3.433 0 0 1-3.43-3.428 3.433 3.433 0 0 1 3.43-3.427l1.175-2.456a6 6 0 0 0-7.177 5.883 6 6 0 0 0 6.002 5.998 5.98 5.98 0 0 0 3.535-1.15l-1.3-2.25a3.42 3.42 0 0 1-2.235.83" clip-rule="evenodd"/><path fill="#5746B2" d="M0 83.223v-6.204l46 23.043 46-23.043v6.272L46 106z"/><path fill="#FFF" d="M0 77.566v-6.5l46 23.042 46-23.042v6.5l-46 22.48z"/><path fill="#FFF" d="M0 71.631v-6.5l46 23.043L92 65.13v6.5L46 94.11 0 71.63Z"/><path stroke="#000" d="M91.5.5v82.522L46 105.441.5 83.022V.5zm.03 20.033H.625M71.262.909v19.624"/></svg>