<svg width="130" height="336" viewBox="0 0 130 336" fill="none" xmlns="http://www.w3.org/2000/svg">
<rect x="0.448378" y="234.502" width="70.8437" height="70.8437" rx="1.34513" fill="white" fill-opacity="0.1"/>
<rect x="0.448378" y="234.502" width="70.8437" height="70.8437" rx="1.34513" stroke="#00D639" stroke-width="0.896756"/>
<g clip-path="url(#clip0_5730_87272)">
<path d="M14.9693 254.809C18.2938 254.809 20.9971 257.108 21.0594 260.308C21.0905 261.209 20.438 261.706 19.7233 261.706C19.0397 261.706 18.4495 261.21 18.4184 260.37C18.3873 258.568 16.8651 257.232 14.9382 257.232C13.1358 257.232 11.7693 258.506 11.7693 260.246C11.7693 262.141 13.0431 262.98 15.684 263.943C18.5111 264.969 21.0905 266.18 21.0905 269.784C21.0905 272.923 18.6356 275.439 15.2184 275.439C11.8627 275.439 9.09717 273.078 9.09717 269.878C9.09717 267.889 10.0603 266.491 10.9923 266.491C11.8004 266.491 12.2972 267.019 12.2972 267.733C12.2972 268.355 11.7693 268.634 11.7693 269.753C11.7693 271.742 13.3848 273.015 15.2184 273.015C17.1446 273.015 18.4184 271.679 18.4184 270.064C18.4184 268.075 17.1446 267.237 14.5036 266.304C11.552 265.249 9.09717 263.974 9.09717 260.464C9.09717 257.295 11.6447 254.809 14.9693 254.809Z" fill="#00D639"/>
<path d="M28.5286 275.439C25.1729 275.439 22.377 272.736 22.377 269.318C22.377 265.776 25.204 263.135 28.622 263.135C32.2883 263.135 34.8669 265.87 34.8669 269.598V274.134C34.8669 274.911 34.2457 275.439 33.5311 275.439C32.7852 275.439 32.1637 274.911 32.1637 274.134V269.691C32.1637 267.236 30.7656 265.558 28.5597 265.558C26.6023 265.558 25.0491 267.205 25.0491 269.318C25.0491 271.276 26.5712 272.953 28.4981 272.953C29.2129 272.953 29.5235 272.767 29.9587 272.767C30.549 272.767 31.1703 273.264 31.1703 273.979C31.1696 274.942 30.0196 275.439 28.5286 275.439Z" fill="#00D639"/>
<path d="M42.5233 284.698C39.0432 284.698 36.1538 282.212 36.1538 278.981C36.1538 277.894 36.7751 277.397 37.4899 277.397C38.2045 277.397 38.7947 277.863 38.826 278.764C38.857 280.784 40.4726 282.275 42.4923 282.275C44.6365 282.275 46.034 280.908 46.034 279.136C46.034 277.116 44.4807 276.278 41.8397 275.439C38.7637 274.444 36.1538 273.077 36.1538 269.287C36.1538 265.807 38.826 263.135 42.3054 263.135C45.8161 263.135 48.7062 265.683 48.7062 269.039C48.7062 271.089 47.8677 272.674 46.7176 272.674C45.9407 272.674 45.4127 272.115 45.4127 271.431C45.4127 270.716 46.034 270.406 46.034 269.132C46.034 266.988 44.3561 265.559 42.3365 265.559C40.3791 265.559 38.826 267.051 38.826 269.008C38.826 271.214 40.4103 272.147 43.0203 273.016C46.034 274.011 48.7062 275.253 48.7062 278.888C48.7062 282.151 46.1275 284.698 42.5233 284.698Z" fill="#00D639"/>
<path d="M56.3307 275.439C52.8504 275.439 49.9922 272.704 49.9922 269.287C49.9922 265.869 52.7577 263.135 56.1749 263.135C59.6241 263.135 62.2338 265.528 62.2338 268.573C62.2338 269.753 61.3953 270.468 60.0282 270.468H56.4552C55.7404 270.468 55.2124 269.971 55.2124 269.318C55.2124 268.697 55.7404 268.199 56.4552 268.199H59.1272C59.3756 268.199 59.5625 268.075 59.5625 267.826C59.5625 266.926 58.4126 265.527 56.269 265.527C54.2806 265.527 52.665 267.236 52.665 269.287C52.665 271.369 54.3116 273.016 56.3623 273.016C58.724 273.016 59.5008 271.617 60.4639 271.617C61.272 271.617 61.7067 272.145 61.7067 272.736C61.7067 273.295 61.3337 273.793 60.4016 274.383C59.4683 274.972 58.0708 275.439 56.3307 275.439Z" fill="#00D639"/>
</g>
<path d="M71.7056 238.035C94.0116 238.035 112.094 219.952 112.094 197.646V0" stroke="url(#paint0_linear_5730_87272)" stroke-width="0.859331"/>
<defs>
<linearGradient id="paint0_linear_5730_87272" x1="71.7056" y1="0" x2="110.01" y2="223.935" gradientUnits="userSpaceOnUse">
<stop stop-color="white" stop-opacity="0.1"/>
<stop offset="0.471154" stop-color="#00D639" stop-opacity="0.1"/>
<stop offset="1" stop-color="#00D639"/>
</linearGradient>
<clipPath id="clip0_5730_87272">
<rect width="53.1376" height="29.9696" fill="white" transform="translate(9.09717 254.809)"/>
</clipPath>
</defs>
</svg>
