<svg width="119" height="156" viewBox="0 0 119 156" fill="none" xmlns="http://www.w3.org/2000/svg">
<g clip-path="url(#clip0_3517_5065)">
<g clip-path="url(#clip1_3517_5065)">
<rect width="71.7405" height="71.7405" rx="1.79351" fill="white" fill-opacity="0.1"/>
<g clip-path="url(#clip2_3517_5065)">
<path d="M29.1505 32.649L32.5102 29.1115C32.8261 28.7788 33.0034 28.3285 33.0034 27.8539V25.0709C33.0034 23.7768 33.4927 22.5354 34.3634 21.6186L35.7042 20.2027C35.8237 20.081 35.7158 19.8701 35.554 19.9025C35.1456 19.9796 34.7372 20.077 34.3249 20.1906C28.7691 21.7605 25.0973 26.2961 26.126 30.3285C26.3456 31.1967 26.7694 31.9716 27.3512 32.6328C27.829 33.1805 28.6535 33.1764 29.1543 32.649" fill="#66CB66"/>
<path d="M43.2102 22.3329L40.5632 25.12C40.2473 25.4526 40.0701 25.9029 40.0701 26.3735V29.1565C40.0701 30.4506 39.5807 31.692 38.7138 32.6089L36.6564 34.7711C36.5408 34.8969 36.6449 35.1038 36.8067 35.0713C37.2151 34.9943 37.6235 34.8969 38.0357 34.7833C43.5916 33.2174 47.2634 28.6778 46.2347 24.6494C46.015 23.7812 45.5912 23.0064 45.0094 22.3451C44.5317 21.7974 43.7072 21.8015 43.2063 22.3289" fill="#66CB66"/>
<path d="M40.3551 18.4506L35.8549 23.189C35.381 23.6879 35.1152 24.3654 35.1152 25.0713V28.9577C35.1152 29.3107 34.9803 29.6515 34.7453 29.8989L28.8273 36.1302C28.7425 36.2195 28.7695 36.3696 28.8774 36.4182C29.3359 36.6332 29.8213 36.8158 30.3299 36.974C30.9271 37.1566 31.5744 36.9943 32.0136 36.5278L37.2265 31.0389C37.7004 30.5399 37.9663 29.8624 37.9663 29.1565V25.2701C37.9663 24.9172 38.1011 24.5764 38.3362 24.3289L43.5414 18.8482C43.6262 18.7589 43.5992 18.6088 43.4913 18.5601C43.0328 18.3451 42.5474 18.1626 42.0388 18.0084C41.4416 17.8258 40.7943 17.9881 40.3551 18.4506Z" fill="#66CB66"/>
<path d="M13.7778 49.5868C13.7778 51.2379 12.2906 51.8586 9.82093 51.8586C8.85771 51.8586 7.64405 51.8059 6.51901 51.6517C6.4381 51.6396 6.37646 51.5665 6.37646 51.4773V50.885C6.37646 50.3738 6.79257 49.9722 7.27418 50.0168C8.21043 50.1061 9.02724 50.1466 9.79781 50.1466C10.9229 50.1466 11.8514 50.033 11.8514 49.2704V48.7754C11.8514 48.2521 11.6356 48.2115 10.5491 47.9276L8.21428 47.3353C7.1008 47.0513 6.34949 46.5442 6.34949 45.1324V44.2156C6.34949 42.5482 7.98696 41.9397 10.3603 41.9397C11.4199 41.9397 12.3407 41.9924 13.5467 42.2115C13.6276 42.2277 13.6854 42.3008 13.6854 42.3859V42.9133C13.6854 43.4285 13.2577 43.8302 12.7684 43.7774C11.913 43.6841 11.2157 43.6517 10.4104 43.6517C9.1775 43.6517 8.27978 43.749 8.27978 44.5117V44.8931C8.27978 45.4448 8.60342 45.5705 9.89028 45.9113L11.9285 46.4347C13.0959 46.747 13.7778 47.1284 13.7778 48.5523V49.5827V49.5868Z" fill="white"/>
<path d="M29.5912 47.2247C29.5912 46.0807 28.8283 45.9265 27.7534 45.9265C26.5205 45.9265 26.0889 46.1375 25.7268 46.9286V50.888C25.7268 51.3708 25.3569 51.7602 24.9023 51.7602H23.9776C23.8851 51.7602 23.8119 51.6832 23.8119 51.5858V45.2166C23.8119 44.7379 24.1818 44.3444 24.6403 44.3444H25.3685C25.4532 44.3444 25.5226 44.4093 25.5341 44.4985L25.6382 45.4032H25.7191C26.0427 44.5148 27.1022 44.2024 28.5625 44.2024C30.2539 44.2024 31.5138 44.7379 31.5138 46.2917V50.888C31.5138 51.3708 31.1439 51.7602 30.6854 51.7602H29.7607C29.6683 51.7602 29.5951 51.6832 29.5951 51.5858V47.2288L29.5912 47.2247Z" fill="white"/>
<path d="M36.1639 48.463L35.7477 48.4995C35.3201 48.5401 34.9926 48.9133 34.9926 49.3677V50.889C34.9926 51.3677 34.6227 51.7612 34.1642 51.7612H33.2395C33.1471 51.7612 33.0739 51.6841 33.0739 51.5867V42.4346C33.0739 41.9559 33.4437 41.5664 33.9022 41.5664H34.8269C34.9194 41.5664 34.9926 41.6435 34.9926 41.7408V46.6577C34.9926 46.7591 35.0773 46.8403 35.1737 46.8322L36.4066 46.7105C36.5068 46.7023 36.5992 46.6537 36.6686 46.5766L38.4371 44.6212C38.595 44.4467 38.8108 44.3494 39.0342 44.3494H40.429C40.5754 44.3494 40.6486 44.5319 40.5484 44.6415L37.9516 47.5543L40.7796 51.4813C40.8605 51.5949 40.7834 51.7612 40.6486 51.7612H39.2539C38.9996 51.7612 38.7607 51.6395 38.6027 51.4285L36.5222 48.6293C36.4374 48.5157 36.2987 48.4508 36.16 48.463" fill="white"/>
<path d="M47.5711 47.2256C47.5711 46.0816 46.8352 45.9274 45.7332 45.9274C44.5003 45.9274 44.0688 46.1383 43.7066 46.9294V50.8889C43.7066 51.3716 43.3368 51.7611 42.8821 51.7611H41.9574C41.865 51.7611 41.7917 51.684 41.7917 51.5867V42.4345C41.7917 41.9517 42.1616 41.5623 42.6163 41.5623H43.541C43.6334 41.5623 43.7066 41.6393 43.7066 41.7367V44.2032L43.6142 45.4041H43.6951C44.0187 44.5156 45.0783 44.2032 46.5385 44.2032C48.2299 44.2032 49.4898 44.7387 49.4898 46.2925V50.8889C49.4898 51.3716 49.1199 51.7611 48.6653 51.7611H47.7406C47.6481 51.7611 47.5749 51.684 47.5749 51.5867V47.2296L47.5711 47.2256Z" fill="white"/>
<path d="M53.0725 52.1544L50.125 44.5885C50.0788 44.4749 50.1597 44.3491 50.2791 44.3491H51.4697C51.8087 44.3491 52.1131 44.5682 52.2402 44.9008L54.1204 49.9272L55.9352 44.909C56.0584 44.5722 56.3628 44.3491 56.7096 44.3491H57.8731C57.9887 44.3491 58.0696 44.4708 58.0273 44.5844L54.552 54.1423C54.4287 54.479 54.1243 54.7021 53.7814 54.7021H52.6332C52.5176 54.7021 52.4367 54.5804 52.4791 54.4668L53.084 52.7995C53.1611 52.5926 53.1572 52.3613 53.0763 52.1585" fill="white"/>
<path d="M64.1693 50.6743H64.0884C63.7917 51.5222 62.7322 51.8589 61.2989 51.8589C59.6499 51.8589 58.39 51.295 58.39 49.7534C58.39 47.8386 59.3686 47.4248 61.3105 47.368C62.397 47.3356 62.9248 47.3964 64.0923 47.506V46.9705C64.0923 46.2646 63.5143 45.8548 61.6264 45.8548C60.9445 45.8548 60.1315 45.9035 59.1567 46.0293C59.0566 46.0414 58.9679 45.9603 58.9679 45.8589V45.2179C58.9679 44.7798 59.28 44.4065 59.6961 44.3538C60.59 44.2402 61.3991 44.2078 62.2159 44.2078C64.7087 44.2078 66.011 44.8163 66.011 46.5364V50.8893C66.011 51.3721 65.6411 51.7616 65.1865 51.7616H64.4429C64.3581 51.7616 64.2888 51.6967 64.2772 51.6074L64.1732 50.6743H64.1693ZM64.0884 48.796C63.4565 48.7108 62.7322 48.6419 62.2121 48.6419C61.0061 48.6419 60.3203 48.7555 60.3203 49.5181C60.3203 50.224 61.0986 50.3214 62.0387 50.3214C63.1098 50.3214 63.6877 50.0942 64.0923 49.5303V48.796H64.0884Z" fill="white"/>
<path d="M20.4599 50.6743H20.3789C20.0823 51.5222 19.0227 51.8589 17.5895 51.8589C15.9404 51.8589 14.6805 51.295 14.6805 49.7534C14.6805 47.8386 15.6592 47.4248 17.601 47.368C18.6875 47.3356 19.2154 47.3964 20.3828 47.506V46.9705C20.3828 46.2646 19.8049 45.8548 17.917 45.8548C17.235 45.8548 16.422 45.9035 15.4473 46.0293C15.3471 46.0414 15.2585 45.9603 15.2585 45.8589V45.2179C15.2585 44.7798 15.5706 44.4065 15.9867 44.3538C16.8805 44.2402 17.6896 44.2078 18.5064 44.2078C20.9993 44.2078 22.3015 44.8163 22.3015 46.5364V50.8893C22.3015 51.3721 21.9317 51.7616 21.477 51.7616H20.7334C20.6486 51.7616 20.5793 51.6967 20.5677 51.6074L20.4637 50.6743H20.4599ZM20.3789 48.796C19.7471 48.7108 19.0227 48.6419 18.5026 48.6419C17.2966 48.6419 16.6108 48.7555 16.6108 49.5181C16.6108 50.224 17.3891 50.3214 18.3292 50.3214C19.4042 50.3214 19.9782 50.0942 20.3828 49.5303V48.796H20.3789Z" fill="white"/>
</g>
</g>
<rect x="0.448378" y="0.448378" width="70.8437" height="70.8437" rx="1.34513" stroke="#66CB66" stroke-width="0.896756"/>
<path d="M71.7407 62.7715C88.5797 62.7715 102.23 76.4222 102.23 93.2612V300.412" stroke="url(#paint0_linear_3517_5065)" stroke-width="0.859331"/>
</g>
<defs>
<linearGradient id="paint0_linear_3517_5065" x1="71.7407" y1="62.7715" x2="121.259" y2="281.675" gradientUnits="userSpaceOnUse">
<stop stop-color="#66CB66"/>
<stop offset="0.389423" stop-color="#66CB66" stop-opacity="0.1"/>
<stop offset="0.822115" stop-color="white" stop-opacity="0.1"/>
</linearGradient>
<clipPath id="clip0_3517_5065">
<rect width="119" height="156" fill="white"/>
</clipPath>
<clipPath id="clip1_3517_5065">
<rect width="71.7405" height="71.7405" rx="1.79351" fill="white"/>
</clipPath>
<clipPath id="clip2_3517_5065">
<rect width="84.6554" height="36.767" fill="white" transform="translate(-6.14758 17.9351)"/>
</clipPath>
</defs>
</svg>
