<svg width="110" height="240" viewBox="0 0 110 240" fill="none" xmlns="http://www.w3.org/2000/svg">
<g clip-path="url(#clip0_5730_87283)">
<rect x="22.8683" y="0.448378" width="70.8437" height="70.8437" rx="1.34513" fill="white" fill-opacity="0.1"/>
<rect x="22.8683" y="0.448378" width="70.8437" height="70.8437" rx="1.34513" stroke="#329ACA" stroke-width="0.896756"/>
<path d="M54.8258 27.5991C54.7851 27.5584 54.7241 27.547 54.6707 27.5686C54.6173 27.5902 54.583 27.6423 54.583 27.7008V31.7393C54.583 31.7965 54.6173 31.8486 54.6707 31.8715C54.6885 31.8791 54.7063 31.8829 54.7254 31.8829C54.7622 31.8829 54.7991 31.8689 54.8258 31.841L56.8457 29.8211C56.8724 29.7944 56.8876 29.7575 56.8876 29.7207C56.8876 29.6838 56.8724 29.6469 56.8457 29.6203L54.8258 27.6004V27.5991Z" fill="#329ACA"/>
<path d="M63.3376 30.3906C63.6033 30.6563 63.9541 30.8025 64.3253 30.8025C65.1007 30.8025 65.7312 30.1732 65.7312 29.3991V23.9446C65.7312 23.1666 65.0982 22.531 64.319 22.5298L58.8352 22.5183C58.2695 22.5183 57.7648 22.8564 57.5487 23.3789C57.3326 23.9013 57.4509 24.4975 57.85 24.8967L59.0932 26.1411L58.5453 26.689L55.0179 23.1615C54.6136 22.7573 54.0772 22.5361 53.5065 22.5361C52.3281 22.5361 51.3696 23.4946 51.3696 24.6729V34.7431C51.3696 35.9227 52.3294 36.8824 53.509 36.8824C54.081 36.8824 54.62 36.66 55.0229 36.2558L58.5441 32.7346L62.0728 36.2647C62.472 36.6638 63.0033 36.8837 63.5664 36.8837H63.616C64.7804 36.8837 65.7287 35.9354 65.7287 34.7443C65.7287 34.1799 65.5088 33.6486 65.1083 33.2495L61.5656 29.7131L62.1109 29.1678L63.3351 30.3932L63.3376 30.3906ZM60.0847 29.8122L64.3202 34.0401C64.5084 34.2283 64.6113 34.4774 64.6113 34.7685C64.6113 35.3164 64.1664 35.7613 63.6185 35.7613H63.569C63.3033 35.7613 63.0541 35.6583 62.8673 35.4702L58.647 31.2499C58.6191 31.222 58.5822 31.208 58.5466 31.208C58.511 31.208 58.4742 31.222 58.4462 31.2499L54.2336 35.4626C54.0416 35.6545 53.7848 35.7613 53.5103 35.7613C52.9484 35.7613 52.4908 35.3037 52.4908 34.7418V24.6729C52.4908 24.1123 52.9471 23.656 53.5077 23.656C53.7798 23.656 54.0353 23.7615 54.2272 23.9547L58.4449 28.1724C58.5008 28.2284 58.5911 28.2284 58.647 28.1724L60.5767 26.2428C60.6326 26.1869 60.6326 26.0966 60.5767 26.0407L58.6432 24.106C58.5237 23.9865 58.5669 23.8479 58.5835 23.8073C58.6 23.7666 58.6674 23.6382 58.8364 23.6382L64.3164 23.6496C64.4791 23.6496 64.6113 23.7831 64.6113 23.9458V29.4004C64.6113 29.5961 64.4435 29.6839 64.3253 29.6839C64.2503 29.6839 64.1855 29.6559 64.1296 29.6L62.2152 27.683C62.1885 27.6563 62.1516 27.6411 62.1148 27.6411C62.0779 27.6411 62.041 27.6563 62.0143 27.683L60.086 29.6114C60.0593 29.6381 60.044 29.675 60.044 29.7118C60.044 29.7487 60.0593 29.7855 60.086 29.8122H60.0847Z" fill="#329ACA"/>
<path d="M45.7021 41.9798H44.3025L44.3064 40.6438C44.3064 40.5294 44.2619 40.4213 44.1818 40.34C44.1017 40.2586 43.9924 40.2141 43.8792 40.2141H43.6212C43.039 40.2141 42.5509 40.6247 42.4835 41.1586C42.4784 41.1866 42.4746 41.2145 42.4746 41.2438V47.6352C42.4746 49.172 43.2564 50.0199 44.6763 50.0199H45.3614C45.5979 50.0199 45.7898 49.8279 45.7898 49.5915V48.6038C45.7898 48.3673 45.5979 48.1754 45.3614 48.1754H44.7322C44.3496 48.1754 44.3076 47.6415 44.3076 47.4127L44.3025 43.8306H45.7034C45.9398 43.8306 46.1317 43.6386 46.1317 43.4022V42.4081C46.1317 42.1717 45.9398 41.9798 45.7034 41.9798H45.7021Z" fill="#329ACA"/>
<path d="M80.1136 41.9658H78.6428V40.6171C78.6428 40.3807 78.4509 40.1887 78.2145 40.1887H77.9462C77.3488 40.1887 76.8454 40.6044 76.7806 41.1434C76.7755 41.1701 76.7729 41.1955 76.7729 41.2222V47.6721C76.7729 49.2216 77.5789 50.0745 79.042 50.0745H79.7526C79.989 50.0745 80.1809 49.8826 80.1809 49.6462V48.6496C80.1809 48.4131 79.989 48.2212 79.7526 48.2212H79.1004C78.6873 48.2212 78.6428 47.6797 78.6428 47.4471V43.8217H80.1136C80.35 43.8217 80.5419 43.6298 80.5419 43.3933V42.3904C80.5419 42.1539 80.35 41.962 80.1136 41.962V41.9658Z" fill="#329ACA"/>
<path d="M59.053 41.9798H57.7221C56.2526 41.9798 55.4429 42.8366 55.4429 44.3925V49.6042C55.4429 49.8407 55.6348 50.0326 55.8713 50.0326H56.8717C57.1081 50.0326 57.3 49.8407 57.3 49.6042V44.4395C57.3 43.8827 57.5098 43.837 57.7627 43.837H59.053C59.2894 43.837 59.4814 43.645 59.4814 43.4086V42.4069C59.4814 42.1705 59.2894 41.9785 59.053 41.9785V41.9798Z" fill="#329ACA"/>
<path d="M66.8476 40.2027H66.5807C65.9159 40.2027 65.3756 40.687 65.3756 41.2832V41.9696H63.8858C61.6664 42.0688 59.9287 43.8446 59.9287 46.0106C59.9287 48.1767 61.6677 49.9614 63.9062 50.0605H66.8489C67.0854 50.0605 67.2773 49.8686 67.2773 49.6322V40.6298C67.2773 40.3934 67.0854 40.2014 66.8489 40.2014L66.8476 40.2027ZM65.3756 43.8484V48.197H64.0803C62.9198 48.197 61.8227 47.1343 61.8227 46.0106C61.8227 44.8869 62.8994 43.8484 64.0803 43.8484H65.3756Z" fill="#329ACA"/>
<path d="M87.494 42.0013H84.6275C82.5581 42.0013 80.7441 43.8954 80.7441 46.0563C80.7441 48.2173 82.4411 50.0186 84.6275 50.119H87.494C87.7305 50.119 87.9224 49.927 87.9224 49.6906V42.4297C87.9224 42.1933 87.7305 42.0013 87.494 42.0013ZM86.05 43.8839V48.2516H84.7991C83.6742 48.2516 82.6115 47.1851 82.6115 46.0563C82.6115 44.9276 83.6538 43.8839 84.7991 43.8839H86.05Z" fill="#329ACA"/>
<path d="M35.834 41.9798H33.0108C30.9693 41.9798 29.1782 43.8497 29.1782 45.9801C29.1782 48.1106 30.8523 49.8902 33.0108 49.9881H35.834C36.0705 49.9881 36.2624 49.7962 36.2624 49.5597V42.4069C36.2624 42.1705 36.0705 41.9785 35.834 41.9785V41.9798ZM34.4052 48.136H33.1786C32.0739 48.136 31.029 47.0886 31.029 45.9801C31.029 44.8717 32.0536 43.8471 33.1786 43.8471H34.4052V48.136Z" fill="#329ACA"/>
<path d="M50.5588 41.9988C48.436 41.9988 46.7085 43.8052 46.7085 46.0259C46.7085 48.2466 48.4246 50.0389 50.5372 50.0516H53.0656C53.302 50.0516 53.494 49.8597 53.494 49.6233V48.6318C53.494 48.3953 53.302 48.2034 53.0656 48.2034H50.541C49.6805 48.197 48.9292 47.6148 48.6381 46.7898H53.9605C54.1817 46.7898 54.3672 46.6208 54.3863 46.3996C54.3978 46.2763 54.4041 46.1517 54.4041 46.0246C54.4041 43.8039 52.6791 41.9976 50.5576 41.9976L50.5588 41.9988ZM48.7818 44.939C49.1415 44.2768 49.8127 43.8471 50.5576 43.8471C51.3025 43.8471 51.9724 44.2768 52.3308 44.939H48.7818Z" fill="#329ACA"/>
<path d="M40.6375 48.1424H39.9129C39.7312 48.1424 39.5443 48.1424 39.5443 47.6466V40.6451C39.5443 40.4086 39.3524 40.2167 39.1159 40.2167H38.7702C38.2147 40.2167 37.7469 40.6018 37.6808 41.1039C37.6757 41.1319 37.6719 41.1599 37.6719 41.1891V47.8106C37.6719 49.2318 38.4117 50.0135 39.7566 50.0135H40.6388C40.8752 50.0135 41.0671 49.8216 41.0671 49.5851V48.5682C41.0671 48.3318 40.8752 48.1398 40.6388 48.1398L40.6375 48.1424Z" fill="#329ACA"/>
<path d="M74.9372 41.9874H72.0783C70.0152 41.9874 68.2051 43.8763 68.2051 46.0309C68.2051 48.1855 69.8983 49.983 72.0783 50.0821H74.9372C75.1736 50.0821 75.3655 49.8902 75.3655 49.6537V42.4145C75.3655 42.178 75.1736 41.9861 74.9372 41.9861V41.9874ZM73.4944 48.2186H72.2486C71.1275 48.2186 70.0686 47.1559 70.0686 46.0309C70.0686 44.9059 71.1071 43.8674 72.2486 43.8674H73.4944V48.2186Z" fill="#329ACA"/>
<path d="M23.2019 62.7312C10.3879 62.7312 0 73.1191 0 85.9331V332.561" stroke="url(#paint0_linear_5730_87283)" stroke-width="0.859331"/>
</g>
<defs>
<linearGradient id="paint0_linear_5730_87283" x1="0" y1="62.7312" x2="79.1681" y2="297.284" gradientUnits="userSpaceOnUse">
<stop stop-color="#329ACA"/>
<stop offset="0.389423" stop-color="#329ACA" stop-opacity="0.1"/>
<stop offset="0.822115" stop-color="white" stop-opacity="0.1"/>
</linearGradient>
<clipPath id="clip0_5730_87283">
<rect width="110" height="240" fill="white"/>
</clipPath>
</defs>
</svg>
