<svg width="120" height="228" viewBox="0 0 120 228" fill="none" xmlns="http://www.w3.org/2000/svg">
<rect x="0.448378" y="124.199" width="70.8437" height="70.8437" rx="1.34513" fill="white" fill-opacity="0.1"/>
<rect x="0.448378" y="124.199" width="70.8437" height="70.8437" rx="1.34513" stroke="#99BC29" stroke-width="0.896756"/>
<g clip-path="url(#clip0_5730_87277)">
<path d="M57.8959 158.37C60.4371 154.899 64.8306 148.996 65.507 148.125C66.291 147.114 67.3437 146.944 68.2755 147.631C69.1721 148.295 69.3238 149.281 68.5586 150.315C64.9243 155.23 63.1307 157.474 59.4501 162.353C58.4863 163.631 57.283 163.589 56.2695 162.321C54.838 160.532 53.4297 158.723 52.0449 156.896C51.2566 155.858 51.3752 154.753 52.2733 154.097C53.1716 153.441 54.2363 153.646 55.0402 154.664C55.9815 155.857 56.8962 157.07 57.8959 158.37Z" fill="#99BC29"/>
<path d="M9.07056 156.994C8.90343 157.013 8.74468 157.078 8.61175 157.181C8.47883 157.285 8.37681 157.423 8.3169 157.58L6.40683 162.42L4.49676 157.575C4.43102 157.402 4.31442 157.252 4.16237 157.147C4.01031 157.041 3.8299 156.984 3.6449 156.983C3.40415 156.98 3.17134 157.069 2.99424 157.233C2.81716 157.397 2.70924 157.622 2.69262 157.863C2.68285 158.01 2.70585 158.156 2.75993 158.292L5.53843 164.6C5.61117 164.771 5.73225 164.916 5.88662 165.019C6.041 165.121 6.22188 165.175 6.40683 165.175C6.5918 165.175 6.77267 165.121 6.92705 165.019C7.08143 164.916 7.20249 164.771 7.27526 164.6L10.0537 158.292C10.0967 158.185 10.12 158.07 10.1227 157.954C10.1235 157.819 10.096 157.686 10.0421 157.563C9.98819 157.439 9.90904 157.329 9.80979 157.239C9.71056 157.148 9.59346 157.08 9.46609 157.037C9.33873 156.995 9.20396 156.981 9.07056 156.994Z" fill="#E8E8E8"/>
<path d="M15.2981 156.884C14.1344 156.884 13.405 157.424 13.0751 157.93V154.512C13.0751 154.263 12.9763 154.023 12.8004 153.847C12.6245 153.67 12.3859 153.571 12.1371 153.571C11.8884 153.571 11.6498 153.67 11.4739 153.847C11.298 154.023 11.1992 154.263 11.1992 154.512V164.27C11.1992 164.793 11.5987 165.176 12.1371 165.176C12.6756 165.176 13.0751 164.793 13.0751 164.27V160.384C13.0751 159.356 13.5093 158.589 14.812 158.589C15.9407 158.589 16.3402 159.269 16.3402 160.262V164.27C16.3402 164.793 16.7221 165.176 17.2781 165.176C17.7989 165.176 18.216 164.793 18.216 164.27V159.914C18.2155 158.398 17.6599 156.884 15.2981 156.884Z" fill="#E8E8E8"/>
<path d="M22.7453 160.592C21.607 160.197 20.5317 159.824 20.5317 158.831C20.5317 157.668 21.7024 157.496 22.4005 157.496C23.3147 157.496 23.9402 157.75 24.5599 158.372C24.5943 158.41 24.6364 158.44 24.6834 158.46C24.7303 158.48 24.7808 158.49 24.8318 158.488C24.9337 158.486 25.0307 158.445 25.1027 158.373C25.1747 158.3 25.216 158.203 25.2181 158.101C25.2178 157.996 25.1783 157.895 25.1077 157.817C24.4606 157.087 23.5492 156.717 22.3988 156.717C20.7237 156.717 19.6831 157.527 19.6831 158.832C19.6831 160.394 21.1602 160.917 22.4638 161.378C23.5878 161.776 24.6497 162.153 24.6497 163.102C24.6497 164.445 23.2833 164.646 22.4683 164.646C21.3445 164.646 20.5925 164.339 19.9441 163.614C19.9092 163.577 19.8671 163.547 19.8205 163.527C19.7739 163.507 19.7235 163.496 19.6727 163.496C19.5699 163.497 19.4718 163.539 19.3992 163.612C19.3265 163.685 19.2852 163.783 19.2837 163.886C19.2832 163.986 19.3189 164.082 19.3841 164.157C19.8427 164.789 20.9736 165.426 22.4683 165.426C24.3645 165.426 25.4966 164.558 25.4966 163.101C25.4983 161.549 24.0358 161.041 22.7453 160.592Z" fill="#E8E8E8"/>
<path d="M37.1066 160.592C35.9683 160.197 34.893 159.824 34.893 158.831C34.893 157.668 36.0642 157.496 36.7616 157.496C37.6759 157.496 38.3015 157.75 38.9211 158.372C38.9554 158.41 38.9975 158.44 39.0445 158.461C39.0914 158.481 39.1421 158.491 39.1931 158.49C39.2954 158.488 39.3932 158.447 39.4657 158.375C39.5384 158.302 39.5801 158.205 39.5821 158.102C39.5818 157.997 39.5423 157.896 39.4717 157.819C38.8224 157.087 37.911 156.717 36.7616 156.717C35.0866 156.717 34.0461 157.527 34.0461 158.832C34.0461 160.394 35.523 160.917 36.8268 161.378C37.9506 161.776 39.0127 162.153 39.0127 163.102C39.0127 164.445 37.6461 164.646 36.8312 164.646C35.7073 164.646 34.9553 164.339 34.3071 163.614C34.2721 163.577 34.2301 163.547 34.1833 163.527C34.1367 163.507 34.0864 163.496 34.0355 163.496C33.9333 163.498 33.836 163.54 33.7639 163.613C33.6919 163.686 33.6508 163.784 33.6494 163.886C33.6489 163.986 33.6846 164.082 33.7498 164.157C34.2082 164.789 35.3393 165.426 36.834 165.426C38.7302 165.426 39.8624 164.558 39.8624 163.101C39.8596 161.549 38.3991 161.041 37.1066 160.592Z" fill="#E8E8E8"/>
<path d="M32.7844 156.822C32.6973 156.822 32.6125 156.849 32.5415 156.899C32.4705 156.949 32.4169 157.021 32.3882 157.103L30.8837 160.844L29.6257 163.895L26.8957 157.108C26.8677 157.025 26.8143 156.952 26.7428 156.901C26.6714 156.849 26.5857 156.822 26.498 156.822C26.3861 156.823 26.2792 156.869 26.2 156.948C26.121 157.028 26.0758 157.135 26.0742 157.247C26.0769 157.317 26.093 157.385 26.1212 157.449L29.1926 164.939L27.8049 168.298C27.774 168.365 27.7564 168.437 27.753 168.511C27.7547 168.623 27.7998 168.73 27.879 168.809C27.958 168.889 28.0649 168.934 28.1768 168.936C28.2637 168.936 28.3485 168.909 28.4195 168.859C28.4905 168.809 28.5441 168.737 28.573 168.655L30.077 164.911L33.1568 157.46C33.1877 157.393 33.2053 157.321 33.2085 157.247C33.2071 157.135 33.1619 157.027 33.0827 156.948C33.0033 156.868 32.8963 156.823 32.7844 156.822Z" fill="#E8E8E8"/>
<path d="M56.8809 171.739C54.774 171.738 52.698 171.232 50.8253 170.263C48.9526 169.295 47.3374 167.891 46.114 166.171C44.8905 164.449 44.0943 162.46 43.7914 160.368C43.4884 158.276 43.6876 156.141 44.3722 154.142C44.4393 153.931 44.5475 153.736 44.6908 153.568C44.834 153.4 45.0093 153.262 45.2065 153.163C45.4036 153.063 45.6183 153.005 45.8383 152.99C46.0583 152.975 46.279 153.005 46.4876 153.077C46.696 153.149 46.888 153.262 47.0524 153.409C47.2167 153.557 47.3501 153.736 47.4446 153.936C47.539 154.135 47.5928 154.352 47.6025 154.573C47.6122 154.794 47.5779 155.015 47.5016 155.223C47.144 156.266 46.9623 157.362 46.9636 158.465C46.9636 163.953 51.4128 168.417 56.8814 168.417C58.327 168.418 59.7551 168.101 61.0658 167.489C62.3763 166.877 63.5374 165.984 64.4676 164.874C64.7506 164.537 65.1553 164.327 65.5927 164.289C66.03 164.252 66.4644 164.39 66.8001 164.674C67.1357 164.958 67.3453 165.364 67.3825 165.803C67.4199 166.242 67.282 166.678 66.999 167.015C65.7583 168.496 64.2097 169.686 62.4618 170.502C60.7137 171.318 58.8089 171.741 56.8809 171.739Z" fill="#E8E8E8"/>
</g>
<path d="M71.3311 129.759C88.8911 129.759 103.126 115.524 103.126 97.9638V0" stroke="url(#paint0_linear_5730_87277)" stroke-width="0.859331"/>
<defs>
<linearGradient id="paint0_linear_5730_87277" x1="71.3311" y1="0" x2="86.0072" y2="123.906" gradientUnits="userSpaceOnUse">
<stop stop-color="white" stop-opacity="0.1"/>
<stop offset="0.471154" stop-color="#99BC29" stop-opacity="0.1"/>
<stop offset="1" stop-color="#99BC29"/>
</linearGradient>
<clipPath id="clip0_5730_87277">
<rect width="66.3599" height="24.5238" fill="white" transform="translate(2.69043 147.217)"/>
</clipPath>
</defs>
</svg>
